PathFileType	4	(X/Y/Z)	Run_400 02
DataRate	CameraRate	NumFrames	NumMarkers	Units	OrigDataRate	OrigDataStartFrame	OrigNumFrames
100	100	5	42	mm	100	146	128
Frame#	Time	RASI			LPSI			RPSI			RTH1			RTH2			RTH3			LTH1			LTH2			LTH3			RTB1			RTB2			RTB3			LTB1			LTB2			LTB3			RCAL			RTOE			RMT5			LCAL			LTOE			LMT5			LACR			RACR			CLAV			C7			RUA1			RUA2			RUA3			RLEL			RMEL			LUA2			LUA3			LLEL			LMEL			RFAsuperior			RFAradius			RFAulna			LFAsuperior			LFAradius			LFAulna			LUA1			LASI			
		X1	Y1	Z1	X2	Y2	Z2	X3	Y3	Z3	X4	Y4	Z4	X5	Y5	Z5	X6	Y6	Z6	X7	Y7	Z7	X8	Y8	Z8	X9	Y9	Z9	X10	Y10	Z10	X11	Y11	Z11	X12	Y12	Z12	X13	Y13	Z13	X14	Y14	Z14	X15	Y15	Z15	X16	Y16	Z16	X17	Y17	Z17	X18	Y18	Z18	X19	Y19	Z19	X20	Y20	Z20	X21	Y21	Z21	X22	Y22	Z22	X23	Y23	Z23	X24	Y24	Z24	X25	Y25	Z25	X26	Y26	Z26	X27	Y27	Z27	X28	Y28	Z28	X29	Y29	Z29	X30	Y30	Z30	X31	Y31	Z31	X32	Y32	Z32	X33	Y33	Z33	X34	Y34	Z34	X35	Y35	Z35	X36	Y36	Z36	X37	Y37	Z37	X38	Y38	Z38	X39	Y39	Z39	X40	Y40	Z40	X41	Y41	Z41	X42	Y42	Z42	

131	1.95	1214.256815	1039.943427	-203.904343	1066.831849	1086.079971	-387.772415	1053.033658	1091.118521	-293.942382	1211.933055	904.771754	-146.738827	1299.372766	847.558461	-167.388962	1316.898335	704.351892	-184.532914	1121.663276	868.702354	-506.365755	1122.439076	729.76384	-466.157641	996.837449	657.314295	-461.141451	1387.235341	458.739929	-252.537621	1309.197846	368.55117	-220.506248	1321.814644	293.683766	-282.92349	873.522728	396.456433	-381.312574	808.742732	368.166575	-423.758548	778.222004	293.501256	-366.96735	1183.315077	209.233377	-303.393796	1416.917058	175.974714	-282.680729	1387.490866	149.581645	-212.430682	625.603187	283.300682	-350.313181	759.28647	68.06048199999999	-298.071133	706.588042	75.875291	-384.607332	1285.445659	1548.727533	-478.889752	1201.328312	1535.184485	-153.604647	1285.276081	1476.864541	-270.415291	1194.083875	1574.6015	-328.813456	1078.916466	1469.525503	-98.37610599999999	1025.801377	1492.882825	-139.137918	990.988326	1434.978721	-105.492298	918.143031	1390.213132	-102.015176	916.9614769999999	1390.72005	-196.83043	1204.083739	1397.491655	-583.208862	1253.463509	1329.114873	-603.43184	1245.037535	1260.871451	-626.519777	1178.373515	1242.285607	-561.454205	988.437095	1339.046655	-90.078104	1129.594155	1244.916995	-123.375258	1078.817656	1197.271975	-109.711773	1317.668033	1256.490601	-575.008273	1406.720179	1295.016732	-427.429181	1431.075116	1228.894703	-441.456755	1282.824031	1446.322096	-562.152139	1235.537175	1017.113984	-457.581596	
132	1.96	1216.430898	1043.345971	-205.520477	1070.237206	1089.82981	-389.962212	1055.847102	1095.145012	-296.834339	1211.654155	905.0529759999999	-149.106533	1298.210711	846.109555	-168.096584	1312.017934	701.608417	-185.618038	1123.337978	871.887005	-507.389619	1119.329049	733.5416750000001	-462.522527	991.3360249999999	665.424856	-461.146462	1397.605231	456.111418	-253.199113	1330.698228	357.244036	-222.636838	1352.008132	285.320078	-286.016062	859.6357819999999	408.610804	-381.01053	795.061206	380.877147	-424.349466	761.789923	307.159045	-367.716024	1224.113805	185.857581	-307.775142	1460.113967	179.781754	-287.307662	1434.285778	147.855804	-218.353854	612.177586	303.834639	-355.283972	730.578034	78.16143700000001	-296.554851	678.081926	87.157566	-382.825307	1285.383449	1554.3109	-476.670168	1202.123443	1538.964141	-152.998164	1285.344793	1481.084042	-269.367524	1193.362422	1578.416273	-327.549275	1079.370965	1475.73765	-98.25842	1027.403761	1500.03525	-139.955083	990.999231	1443.251853	-105.892852	917.027456	1398.86292	-103.180931	916.780052	1399.641961	-198.17565	1206.01179	1406.746324	-582.966797	1256.45243	1338.975544	-604.499405	1248.17119	1270.018837	-628.321289	1180.063576	1250.873949	-565.140068	987.326488	1348.052627	-91.011927	1129.371948	1254.506838	-122.867786	1078.701781	1206.460322	-111.121226	1319.501865	1265.438862	-574.701194	1404.164951	1303.962816	-424.161243	1428.955719	1237.804166	-437.834403	1285.029594	1454.983402	-562.4974539999999	1239.115496	1021.385752	-459.735322	
133	1.97	1218.390677	1045.190147	-206.142143	1073.230808	1092.904784	-391.953294	1058.404038	1097.882895	-298.651001	1211.699983	902.587252	-151.055614	1296.769372	841.5612180000001	-168.368523	1306.356829	696.556322	-186.889891	1125.111006	874.212169	-508.42866	1118.133383	736.232948	-460.23908	988.97274	670.617307	-461.959659	1405.398654	452.29561	-254.271157	1350.54728	346.330437	-224.610156	1380.163383	277.966976	-288.392553	847.624355	418.540173	-380.28608	783.24195	391.96339	-424.721974	745.5343820000001	320.974879	-367.79243	1264.18892	165.413649	-311.048431	1499.34381	186.215143	-291.856015	1478.160994	149.616877	-223.591136	596.29561	324.190285	-361.615983	704.822622	92.035295	-292.58653	652.509912	102.243159	-378.550332	1285.451122	1558.963458	-474.461	1203.221599	1541.675657	-152.241895	1285.516945	1484.250692	-268.530185	1192.810936	1581.316865	-326.249631	1080.250611	1480.073064	-97.613978	1029.371497	1505.362371	-140.119822	991.641209	1449.810795	-105.808812	916.660285	1405.546479	-103.712606	917.247435	1406.505758	-198.973721	1207.395485	1414.461039	-583.117656	1258.459136	1347.243414	-605.8954	1250.123277	1277.633722	-630.389217	1181.257841	1258.271724	-568.420044	987.182518	1355.161327	-91.61890099999999	1130.205049	1262.38066	-122.31994	1079.764258	1213.987756	-111.976377	1320.201755	1272.671527	-574.958887	1401.152568	1310.714312	-421.911697	1425.918642	1244.470404	-435.398636	1286.659529	1462.058334	-563.356634	1242.306799	1025.040816	-461.757337	
134	1.98	1220.038119	1045.626229	-206.070752	1075.470939	1095.220859	-393.350066	1060.270387	1099.198647	-299.210115	1212.739349	898.503787	-151.92261	1295.425963	834.223416	-168.372001	1299.928623	689.751264	-188.381089	1126.936976	875.917676	-509.348368	1118.833682	737.972667	-459.454944	989.734898	672.8122069999999	-463.215152	1410.742885	447.793637	-255.506249	1367.908347	336.67049	-226.335006	1405.106405	272.306242	-290.104761	837.345427	426.35354	-379.340765	773.140097	401.737349	-425.054439	729.756858	334.966009	-367.622089	1301.952766	148.485409	-313.124819	1533.284583	195.387359	-296.248537	1517.335509	155.193716	-228.016791	579.1233989999999	344.772568	-368.926056	680.9264920000001	109.053643	-286.622985	628.774914	120.478401	-372.250428	1285.745188	1562.727853	-472.284998	1204.520519	1543.268071	-151.254833	1285.827262	1486.504391	-267.844499	1192.547169	1583.365578	-324.904982	1081.412063	1482.482719	-96.51906700000001	1031.304492	1508.669152	-139.53755	992.666216	1454.237178	-105.21174	916.962803	1409.885511	-103.624788	918.043587	1410.930886	-199.105021	1208.040593	1420.435242	-583.696376	1259.329352	1353.864871	-607.928626	1250.764966	1283.597105	-632.661422	1181.80048	1264.498696	-570.911058	987.935459	1360.145861	-91.818315	1132.0908	1268.498021	-121.706714	1081.985305	1219.702964	-112.124206	1319.715966	1278.00472	-575.808119	1397.777566	1315.031581	-420.718687	1422.07682	1248.651462	-434.107499	1287.541718	1467.403771	-564.553367	1244.762411	1027.962171	-463.221696	
135	1.99	1221.393493	1044.895078	-205.831029	1076.786388	1096.684396	-393.90535	1061.411672	1099.305262	-299.142264	1214.338126	893.6632980000001	-151.359133	1293.961258	824.932868	-167.999898	1292.381031	681.47226	-189.724967	1128.709736	877.2311539999999	-510.159687	1120.919043	739.000361	-459.905703	992.871773	672.667554	-464.477871	1413.915945	443.28217	-256.786153	1382.033091	329.02602	-227.706145	1425.600233	268.857804	-291.453784	829.067391	432.549101	-378.675085	764.971391	410.77474	-425.778742	715.491524	348.932141	-367.784195	1335.363891	135.489208	-314.245221	1560.625222	206.444003	-300.045733	1549.883272	163.807615	-231.603057	563.534502	366.164419	-376.165692	657.423729	128.131853	-280.327375	605.430375	140.762382	-365.623965	1286.392923	1565.728911	-470.059277	1205.99869	1543.712237	-149.971707	1286.280749	1487.906841	-267.252376	1192.627016	1584.63872	-323.51802	1082.839266	1482.999407	-95.083113	1032.981022	1509.84614	-138.154598	993.915068	1456.191052	-104.019463	917.8996550000001	1411.612455	-102.879913	919.148523	1412.688109	-198.499749	1207.6984	1424.611627	-584.591168	1258.877599	1358.737437	-610.515271	1249.925407	1287.90992	-635.0207370000001	1181.283627	1269.42468	-572.763857	989.519389	1362.833732	-91.414315	1134.967833	1272.828924	-120.933504	1085.31568	1223.488122	-111.488615	1317.974889	1281.342223	-577.1765370000001	1394.132883	1316.813702	-420.59737	1417.595304	1250.20295	-433.918802	1287.443705	1470.975264	-565.9684569999999	1246.291526	1030.015165	-463.831099	
